<svg width="118" height="118" viewBox="0 0 118 118" fill="none" xmlns="http://www.w3.org/2000/svg">
<path d="M28.418 75.668H4.79297L1.41797 72.293V45.293L4.79297 41.918H28.418" stroke="#33F4C5" stroke-width="2.835" stroke-miterlimit="10"/>
<path d="M35.168 48.668V68.918" stroke="#33F4C5" stroke-width="2.835" stroke-miterlimit="10"/>
<path d="M35.2344 72.0234C36.1664 72.0234 36.9219 71.2679 36.9219 70.3359C36.9219 69.404 36.1664 68.6484 35.2344 68.6484C34.3024 68.6484 33.5469 69.404 33.5469 70.3359C33.5469 71.2679 34.3024 72.0234 35.2344 72.0234Z" stroke="#33F4C5" stroke-width="1.62" stroke-miterlimit="10"/>
<path d="M35.1016 48.9375C36.0335 48.9375 36.7891 48.182 36.7891 47.25C36.7891 46.318 36.0335 45.5625 35.1016 45.5625C34.1696 45.5625 33.4141 46.318 33.4141 47.25C33.4141 48.182 34.1696 48.9375 35.1016 48.9375Z" stroke="#33F4C5" stroke-width="1.62" stroke-miterlimit="10"/>
<path d="M28.418 35.168H4.79297L1.41797 31.793V4.79297L4.79297 1.41797H31.793L35.168 4.79297V28.418" stroke="#33F4C5" stroke-width="2.835" stroke-miterlimit="10"/>
<path d="M35.2344 31.5234C36.1664 31.5234 36.9219 30.7679 36.9219 29.8359C36.9219 28.904 36.1664 28.1484 35.2344 28.1484C34.3024 28.1484 33.5469 28.904 33.5469 29.8359C33.5469 30.7679 34.3024 31.5234 35.2344 31.5234Z" stroke="#33F4C5" stroke-width="1.62" stroke-miterlimit="10"/>
<path d="M29.8359 36.7891C30.7679 36.7891 31.5234 36.0335 31.5234 35.1016C31.5234 34.1696 30.7679 33.4141 29.8359 33.4141C28.904 33.4141 28.1484 34.1696 28.1484 35.1016C28.1484 36.0335 28.904 36.7891 29.8359 36.7891Z" stroke="#33F4C5" stroke-width="1.62" stroke-miterlimit="10"/>
<path d="M89.168 82.418H112.793L116.168 85.793V112.793L112.793 116.168H85.793L82.418 112.793V89.168" stroke="#006783" stroke-width="2.835" stroke-miterlimit="10"/>
<path d="M82.3516 89.4375C83.2835 89.4375 84.0391 88.682 84.0391 87.75C84.0391 86.818 83.2835 86.0625 82.3516 86.0625C81.4196 86.0625 80.6641 86.818 80.6641 87.75C80.6641 88.682 81.4196 89.4375 82.3516 89.4375Z" stroke="#006783" stroke-width="1.62" stroke-miterlimit="10"/>
<path d="M87.75 84.1719C88.682 84.1719 89.4375 83.4164 89.4375 82.4844C89.4375 81.5524 88.682 80.7969 87.75 80.7969C86.818 80.7969 86.0625 81.5524 86.0625 82.4844C86.0625 83.4164 86.818 84.1719 87.75 84.1719Z" stroke="#006783" stroke-width="1.62" stroke-miterlimit="10"/>
<path d="M82.418 28.418V4.79297L85.793 1.41797H112.793L116.168 4.79297V31.793L112.793 35.168H89.168" stroke="#1ECCDD" stroke-width="2.835" stroke-miterlimit="10"/>
<path d="M87.75 36.9219C88.682 36.9219 89.4375 36.1664 89.4375 35.2344C89.4375 34.3024 88.682 33.5469 87.75 33.5469C86.818 33.5469 86.0625 34.3024 86.0625 35.2344C86.0625 36.1664 86.818 36.9219 87.75 36.9219Z" stroke="#1ECCDD" stroke-width="1.62" stroke-miterlimit="10"/>
<path d="M82.4844 31.5234C83.4164 31.5234 84.1719 30.7679 84.1719 29.8359C84.1719 28.904 83.4164 28.1484 82.4844 28.1484C81.5524 28.1484 80.7969 28.904 80.7969 29.8359C80.7969 30.7679 81.5524 31.5234 82.4844 31.5234Z" stroke="#1ECCDD" stroke-width="1.62" stroke-miterlimit="10"/>
<path d="M35.168 89.168V112.793L31.793 116.168H4.79297L1.41797 112.793V85.793L4.79297 82.418H28.418" stroke="#1ECCDD" stroke-width="2.835" stroke-miterlimit="10"/>
<path d="M29.8359 84.0391C30.7679 84.0391 31.5234 83.2835 31.5234 82.3516C31.5234 81.4196 30.7679 80.6641 29.8359 80.6641C28.904 80.6641 28.1484 81.4196 28.1484 82.3516C28.1484 83.2835 28.904 84.0391 29.8359 84.0391Z" stroke="#1ECCDD" stroke-width="1.62" stroke-miterlimit="10"/>
<path d="M35.1016 89.4375C36.0335 89.4375 36.7891 88.682 36.7891 87.75C36.7891 86.818 36.0335 86.0625 35.1016 86.0625C34.1696 86.0625 33.4141 86.818 33.4141 87.75C33.4141 88.682 34.1696 89.4375 35.1016 89.4375Z" stroke="#1ECCDD" stroke-width="1.62" stroke-miterlimit="10"/>
<path d="M29.8359 77.2891C30.7679 77.2891 31.5234 76.5335 31.5234 75.6016C31.5234 74.6696 30.7679 73.9141 29.8359 73.9141C28.904 73.9141 28.1484 74.6696 28.1484 75.6016C28.1484 76.5335 28.904 77.2891 29.8359 77.2891Z" stroke="#33F4C5" stroke-width="1.62" stroke-miterlimit="10"/>
<path d="M29.8359 43.5391C30.7679 43.5391 31.5234 42.7835 31.5234 41.8516C31.5234 40.9196 30.7679 40.1641 29.8359 40.1641C28.904 40.1641 28.1484 40.9196 28.1484 41.8516C28.1484 42.7835 28.904 43.5391 29.8359 43.5391Z" stroke="#33F4C5" stroke-width="1.62" stroke-miterlimit="10"/>
<path d="M89.168 41.918H112.793L116.168 45.293V72.293L112.793 75.668H89.168" stroke="#006783" stroke-width="2.835" stroke-miterlimit="10"/>
<path d="M82.418 68.918V48.668" stroke="#006783" stroke-width="2.835" stroke-miterlimit="10"/>
<path d="M82.3516 48.9375C83.2835 48.9375 84.0391 48.182 84.0391 47.25C84.0391 46.318 83.2835 45.5625 82.3516 45.5625C81.4196 45.5625 80.6641 46.318 80.6641 47.25C80.6641 48.182 81.4196 48.9375 82.3516 48.9375Z" stroke="#006783" stroke-width="1.62" stroke-miterlimit="10"/>
<path d="M82.4844 72.0234C83.4164 72.0234 84.1719 71.2679 84.1719 70.3359C84.1719 69.404 83.4164 68.6484 82.4844 68.6484C81.5524 68.6484 80.7969 69.404 80.7969 70.3359C80.7969 71.2679 81.5524 72.0234 82.4844 72.0234Z" stroke="#006783" stroke-width="1.62" stroke-miterlimit="10"/>
<path d="M87.75 43.6719C88.682 43.6719 89.4375 42.9164 89.4375 41.9844C89.4375 41.0524 88.682 40.2969 87.75 40.2969C86.818 40.2969 86.0625 41.0524 86.0625 41.9844C86.0625 42.9164 86.818 43.6719 87.75 43.6719Z" stroke="#006783" stroke-width="1.62" stroke-miterlimit="10"/>
<path d="M87.75 77.4219C88.682 77.4219 89.4375 76.6664 89.4375 75.7344C89.4375 74.8024 88.682 74.0469 87.75 74.0469C86.818 74.0469 86.0625 74.8024 86.0625 75.7344C86.0625 76.6664 86.818 77.4219 87.75 77.4219Z" stroke="#006783" stroke-width="1.62" stroke-miterlimit="10"/>
<path d="M75.668 89.168V112.793L72.293 116.168H45.293L41.918 112.793V89.168" stroke="#006783" stroke-width="2.835" stroke-miterlimit="10"/>
<path d="M48.668 82.418H68.918" stroke="#006783" stroke-width="2.835" stroke-miterlimit="10"/>
<path d="M70.3359 84.0391C71.2679 84.0391 72.0234 83.2835 72.0234 82.3516C72.0234 81.4196 71.2679 80.6641 70.3359 80.6641C69.404 80.6641 68.6484 81.4196 68.6484 82.3516C68.6484 83.2835 69.404 84.0391 70.3359 84.0391Z" stroke="#006783" stroke-width="1.62" stroke-miterlimit="10"/>
<path d="M47.25 84.1719C48.182 84.1719 48.9375 83.4164 48.9375 82.4844C48.9375 81.5524 48.182 80.7969 47.25 80.7969C46.318 80.7969 45.5625 81.5524 45.5625 82.4844C45.5625 83.4164 46.318 84.1719 47.25 84.1719Z" stroke="#006783" stroke-width="1.62" stroke-miterlimit="10"/>
<path d="M75.6016 89.4375C76.5335 89.4375 77.2891 88.682 77.2891 87.75C77.2891 86.818 76.5335 86.0625 75.6016 86.0625C74.6696 86.0625 73.9141 86.818 73.9141 87.75C73.9141 88.682 74.6696 89.4375 75.6016 89.4375Z" stroke="#006783" stroke-width="1.62" stroke-miterlimit="10"/>
<path d="M41.8516 89.4375C42.7835 89.4375 43.5391 88.682 43.5391 87.75C43.5391 86.818 42.7835 86.0625 41.8516 86.0625C40.9196 86.0625 40.1641 86.818 40.1641 87.75C40.1641 88.682 40.9196 89.4375 41.8516 89.4375Z" stroke="#006783" stroke-width="1.62" stroke-miterlimit="10"/>
<path d="M41.918 28.418V4.79297L45.293 1.41797H72.293L75.668 4.79297V28.418" stroke="#33F4C5" stroke-width="2.835" stroke-miterlimit="10"/>
<path d="M68.918 35.168H48.668" stroke="#33F4C5" stroke-width="2.835" stroke-miterlimit="10"/>
<path d="M47.25 36.9219C48.182 36.9219 48.9375 36.1664 48.9375 35.2344C48.9375 34.3024 48.182 33.5469 47.25 33.5469C46.318 33.5469 45.5625 34.3024 45.5625 35.2344C45.5625 36.1664 46.318 36.9219 47.25 36.9219Z" stroke="#33F4C5" stroke-width="1.62" stroke-miterlimit="10"/>
<path d="M70.3359 36.7891C71.2679 36.7891 72.0234 36.0335 72.0234 35.1016C72.0234 34.1696 71.2679 33.4141 70.3359 33.4141C69.404 33.4141 68.6484 34.1696 68.6484 35.1016C68.6484 36.0335 69.404 36.7891 70.3359 36.7891Z" stroke="#33F4C5" stroke-width="1.62" stroke-miterlimit="10"/>
<path d="M68.918 41.918H48.668" stroke="#1ECCDD" stroke-width="2.835" stroke-miterlimit="10"/>
<path d="M47.25 43.6719C48.182 43.6719 48.9375 42.9164 48.9375 41.9844C48.9375 41.0524 48.182 40.2969 47.25 40.2969C46.318 40.2969 45.5625 41.0524 45.5625 41.9844C45.5625 42.9164 46.318 43.6719 47.25 43.6719Z" stroke="#1ECCDD" stroke-width="1.62" stroke-miterlimit="10"/>
<path d="M70.3359 43.5391C71.2679 43.5391 72.0234 42.7835 72.0234 41.8516C72.0234 40.9196 71.2679 40.1641 70.3359 40.1641C69.404 40.1641 68.6484 40.9196 68.6484 41.8516C68.6484 42.7835 69.404 43.5391 70.3359 43.5391Z" stroke="#1ECCDD" stroke-width="1.62" stroke-miterlimit="10"/>
<path d="M68.918 75.668H48.668" stroke="#1ECCDD" stroke-width="2.835" stroke-miterlimit="10"/>
<path d="M47.25 77.4219C48.182 77.4219 48.9375 76.6664 48.9375 75.7344C48.9375 74.8024 48.182 74.0469 47.25 74.0469C46.318 74.0469 45.5625 74.8024 45.5625 75.7344C45.5625 76.6664 46.318 77.4219 47.25 77.4219Z" stroke="#1ECCDD" stroke-width="1.62" stroke-miterlimit="10"/>
<path d="M70.3359 77.2891C71.2679 77.2891 72.0234 76.5335 72.0234 75.6016C72.0234 74.6696 71.2679 73.9141 70.3359 73.9141C69.404 73.9141 68.6484 74.6696 68.6484 75.6016C68.6484 76.5335 69.404 77.2891 70.3359 77.2891Z" stroke="#1ECCDD" stroke-width="1.62" stroke-miterlimit="10"/>
<path d="M75.668 68.918V48.668" stroke="#1ECCDD" stroke-width="2.835" stroke-miterlimit="10"/>
<path d="M75.6016 48.9375C76.5335 48.9375 77.2891 48.182 77.2891 47.25C77.2891 46.318 76.5335 45.5625 75.6016 45.5625C74.6696 45.5625 73.9141 46.318 73.9141 47.25C73.9141 48.182 74.6696 48.9375 75.6016 48.9375Z" stroke="#1ECCDD" stroke-width="1.62" stroke-miterlimit="10"/>
<path d="M75.7344 72.0234C76.6664 72.0234 77.4219 71.2679 77.4219 70.3359C77.4219 69.404 76.6664 68.6484 75.7344 68.6484C74.8024 68.6484 74.0469 69.404 74.0469 70.3359C74.0469 71.2679 74.8024 72.0234 75.7344 72.0234Z" stroke="#1ECCDD" stroke-width="1.62" stroke-miterlimit="10"/>
<path d="M41.918 68.918V48.668" stroke="#1ECCDD" stroke-width="2.835" stroke-miterlimit="10"/>
<path d="M41.8516 48.9375C42.7835 48.9375 43.5391 48.182 43.5391 47.25C43.5391 46.318 42.7835 45.5625 41.8516 45.5625C40.9196 45.5625 40.1641 46.318 40.1641 47.25C40.1641 48.182 40.9196 48.9375 41.8516 48.9375Z" stroke="#1ECCDD" stroke-width="1.62" stroke-miterlimit="10"/>
<path d="M41.9844 72.0234C42.9164 72.0234 43.6719 71.2679 43.6719 70.3359C43.6719 69.404 42.9164 68.6484 41.9844 68.6484C41.0524 68.6484 40.2969 69.404 40.2969 70.3359C40.2969 71.2679 41.0524 72.0234 41.9844 72.0234Z" stroke="#1ECCDD" stroke-width="1.62" stroke-miterlimit="10"/>
<path d="M41.9844 31.5234C42.9164 31.5234 43.6719 30.7679 43.6719 29.8359C43.6719 28.904 42.9164 28.1484 41.9844 28.1484C41.0524 28.1484 40.2969 28.904 40.2969 29.8359C40.2969 30.7679 41.0524 31.5234 41.9844 31.5234Z" stroke="#33F4C5" stroke-width="1.62" stroke-miterlimit="10"/>
<path d="M75.7344 31.5234C76.6664 31.5234 77.4219 30.7679 77.4219 29.8359C77.4219 28.904 76.6664 28.1484 75.7344 28.1484C74.8024 28.1484 74.0469 28.904 74.0469 29.8359C74.0469 30.7679 74.8024 31.5234 75.7344 31.5234Z" stroke="#33F4C5" stroke-width="1.62" stroke-miterlimit="10"/>
</svg>
