<svg width="788" height="104" viewBox="0 0 788 104" fill="none" xmlns="http://www.w3.org/2000/svg">
<path d="M21.6138 0.749111V4.49911H4.77291V35.6582H0.545632V0.749111H21.6138ZM29.9959 36.1355V32.1809H32.1777C33.0186 32.1809 33.7232 32.0162 34.2914 31.6866C34.8709 31.3571 35.3482 30.9309 35.7232 30.4082C36.1096 29.8855 36.4277 29.34 36.6777 28.7718L37.2232 27.4764L25.155 0.749111H29.7232L39.3368 22.4309L48.1323 0.749111H52.6323L40.5641 29.9991C40.0868 31.09 39.5414 32.1014 38.9277 33.0332C38.3255 33.965 37.5016 34.715 36.4561 35.2832C35.4221 35.8514 34.0186 36.1355 32.2459 36.1355H29.9959ZM84.2218 0.749111V35.6582H79.9945V4.49911H62.4036V35.6582H58.1763V0.749111H84.2218ZM104.34 11.6582V8.59002C104.34 7.6582 104.504 6.66957 104.834 5.62411C105.175 4.56729 105.664 3.55025 106.3 2.57298C106.948 1.58434 107.726 0.726383 108.635 -0.000888824L110.817 1.77184C110.101 2.79457 109.476 3.86275 108.942 4.97638C108.419 6.07866 108.158 7.26047 108.158 8.52184V11.6582H104.34ZM113.067 11.6582V8.59002C113.067 7.6582 113.232 6.66957 113.561 5.62411C113.902 4.56729 114.391 3.55025 115.027 2.57298C115.675 1.58434 116.453 0.726383 117.362 -0.000888824L119.544 1.77184C118.828 2.79457 118.203 3.86275 117.669 4.97638C117.146 6.07866 116.885 7.26047 116.885 8.52184V11.6582H113.067ZM124.53 0.749111H128.689V28.2264H129.03L148.121 0.749111H152.212V35.6582H147.985V8.24911H147.644L128.621 35.6582H124.53V0.749111ZM177.648 20.7264V24.4764H163.193V20.7264H177.648ZM164.148 9.47638V35.6582H160.125V9.47638H164.148ZM180.716 9.47638V35.6582H176.693V9.47638H180.716ZM198.699 44.59V0.749111H202.722V44.59H198.699ZM198.699 36.2037C196.926 36.2037 195.313 35.8855 193.858 35.2491C192.404 34.6014 191.154 33.6866 190.108 32.5048C189.063 31.3116 188.256 29.8855 187.688 28.2264C187.119 26.5673 186.835 24.7264 186.835 22.7037C186.835 20.6582 187.119 18.8059 187.688 17.1468C188.256 15.4764 189.063 14.0446 190.108 12.8514C191.154 11.6582 192.404 10.7434 193.858 10.1071C195.313 9.45934 196.926 9.13548 198.699 9.13548H199.926V36.2037H198.699ZM198.699 32.59H199.381V12.7491H198.699C197.358 12.7491 196.193 13.0218 195.205 13.5673C194.216 14.1014 193.398 14.8343 192.75 15.7662C192.114 16.6866 191.637 17.7434 191.318 18.9366C191.012 20.1298 190.858 21.3855 190.858 22.7037C190.858 24.4537 191.137 26.0787 191.693 27.5787C192.25 29.0787 193.108 30.2889 194.267 31.2093C195.426 32.1298 196.904 32.59 198.699 32.59ZM202.722 36.2037H201.494V9.13548H202.722C204.494 9.13548 206.108 9.45934 207.563 10.1071C209.017 10.7434 210.267 11.6582 211.313 12.8514C212.358 14.0446 213.165 15.4764 213.733 17.1468C214.301 18.8059 214.585 20.6582 214.585 22.7037C214.585 24.7264 214.301 26.5673 213.733 28.2264C213.165 29.8855 212.358 31.3116 211.313 32.5048C210.267 33.6866 209.017 34.6014 207.563 35.2491C206.108 35.8855 204.494 36.2037 202.722 36.2037ZM202.722 32.59C204.074 32.59 205.239 32.3287 206.216 31.8059C207.205 31.2718 208.017 30.5446 208.654 29.6241C209.301 28.6923 209.779 27.6355 210.085 26.4537C210.404 25.2605 210.563 24.0105 210.563 22.7037C210.563 20.9537 210.284 19.323 209.727 17.8116C209.171 16.3002 208.313 15.0787 207.154 14.1468C205.994 13.215 204.517 12.7491 202.722 12.7491H202.04V32.59H202.722ZM231.371 36.2037C229.007 36.2037 226.933 35.6412 225.149 34.5162C223.377 33.3912 221.99 31.8173 220.99 29.7946C220.002 27.7718 219.507 25.4082 219.507 22.7037C219.507 19.9764 220.002 17.5957 220.99 15.5616C221.99 13.5275 223.377 11.948 225.149 10.823C226.933 9.69798 229.007 9.13548 231.371 9.13548C233.735 9.13548 235.803 9.69798 237.575 10.823C239.36 11.948 240.746 13.5275 241.735 15.5616C242.735 17.5957 243.235 19.9764 243.235 22.7037C243.235 25.4082 242.735 27.7718 241.735 29.7946C240.746 31.8173 239.36 33.3912 237.575 34.5162C235.803 35.6412 233.735 36.2037 231.371 36.2037ZM231.371 32.59C233.166 32.59 234.644 32.1298 235.803 31.2093C236.962 30.2889 237.82 29.0787 238.377 27.5787C238.933 26.0787 239.212 24.4537 239.212 22.7037C239.212 20.9537 238.933 19.323 238.377 17.8116C237.82 16.3002 236.962 15.0787 235.803 14.1468C234.644 13.215 233.166 12.7491 231.371 12.7491C229.575 12.7491 228.098 13.215 226.939 14.1468C225.78 15.0787 224.922 16.3002 224.365 17.8116C223.808 19.323 223.53 20.9537 223.53 22.7037C223.53 24.4537 223.808 26.0787 224.365 27.5787C224.922 29.0787 225.78 30.2889 226.939 31.2093C228.098 32.1298 229.575 32.59 231.371 32.59ZM249.375 45.4764V9.47638H253.262V13.6355H253.739C254.034 13.1809 254.443 12.6014 254.966 11.8968C255.5 11.1809 256.262 10.5446 257.25 9.98775C258.25 9.41957 259.602 9.13548 261.307 9.13548C263.512 9.13548 265.455 9.68661 267.137 10.7889C268.818 11.8912 270.131 13.4537 271.074 15.4764C272.017 17.4991 272.489 19.8855 272.489 22.6355C272.489 25.4082 272.017 27.8116 271.074 29.8457C270.131 31.8684 268.824 33.4366 267.154 34.5502C265.483 35.6525 263.557 36.2037 261.375 36.2037C259.693 36.2037 258.347 35.9252 257.335 35.3684C256.324 34.8002 255.546 34.1582 255 33.4423C254.455 32.715 254.034 32.1127 253.739 31.6355H253.398V45.4764H249.375ZM253.33 22.5673C253.33 24.5446 253.619 26.2889 254.199 27.8002C254.779 29.3002 255.625 30.4764 256.739 31.3287C257.852 32.1696 259.216 32.59 260.83 32.59C262.512 32.59 263.915 32.1468 265.04 31.2605C266.176 30.3627 267.029 29.1582 267.597 27.6468C268.176 26.1241 268.466 24.4309 268.466 22.5673C268.466 20.7264 268.182 19.0673 267.614 17.59C267.057 16.1014 266.21 14.9252 265.074 14.0616C263.949 13.1866 262.534 12.7491 260.83 12.7491C259.193 12.7491 257.818 13.1639 256.705 13.9934C255.591 14.8116 254.75 15.9593 254.182 17.4366C253.614 18.9025 253.33 20.6127 253.33 22.5673ZM292.943 30.2037L302.08 9.47638H305.898L294.58 35.6582H291.307L280.193 9.47638H283.943L292.943 30.2037ZM282.648 9.47638V35.6582H278.625V9.47638H282.648ZM303.239 35.6582V9.47638H307.262V35.6582H303.239ZM322.33 36.2718C320.671 36.2718 319.165 35.9593 317.813 35.3343C316.46 34.698 315.387 33.7832 314.591 32.59C313.796 31.3855 313.398 29.9309 313.398 28.2264C313.398 26.7264 313.693 25.5105 314.284 24.5787C314.875 23.6355 315.665 22.8968 316.654 22.3627C317.642 21.8287 318.733 21.4309 319.926 21.1696C321.131 20.8968 322.341 20.6809 323.557 20.5218C325.148 20.3173 326.438 20.1639 327.426 20.0616C328.426 19.948 329.154 19.7605 329.608 19.4991C330.074 19.2377 330.307 18.7832 330.307 18.1355V17.9991C330.307 16.3173 329.847 15.0105 328.926 14.0787C328.017 13.1468 326.637 12.6809 324.784 12.6809C322.864 12.6809 321.358 13.1014 320.267 13.9423C319.176 14.7832 318.409 15.6809 317.966 16.6355L314.148 15.2718C314.83 13.6809 315.739 12.4423 316.875 11.5559C318.023 10.6582 319.273 10.0332 320.625 9.68093C321.989 9.31729 323.33 9.13548 324.648 9.13548C325.489 9.13548 326.455 9.23775 327.546 9.44229C328.648 9.63547 329.71 10.0389 330.733 10.6525C331.767 11.2662 332.625 12.1923 333.307 13.4309C333.989 14.6696 334.33 16.3287 334.33 18.4082V35.6582H330.307V32.1127H330.102C329.83 32.6809 329.375 33.2889 328.739 33.9366C328.102 34.5843 327.256 35.1355 326.199 35.59C325.142 36.0446 323.852 36.2718 322.33 36.2718ZM322.943 32.6582C324.534 32.6582 325.875 32.3457 326.966 31.7207C328.068 31.0957 328.898 30.2889 329.455 29.3002C330.023 28.3116 330.307 27.2718 330.307 26.1809V22.4991C330.137 22.7037 329.762 22.8912 329.182 23.0616C328.614 23.2207 327.955 23.3627 327.205 23.4877C326.466 23.6014 325.744 23.7037 325.04 23.7946C324.347 23.8741 323.784 23.9423 323.352 23.9991C322.307 24.1355 321.33 24.3571 320.421 24.6639C319.523 24.9593 318.796 25.4082 318.239 26.0105C317.693 26.6014 317.421 27.4082 317.421 28.4309C317.421 29.8287 317.938 30.8855 318.972 31.6014C320.017 32.3059 321.341 32.6582 322.943 32.6582ZM362.263 9.47638V31.9082H365.945V44.1127H361.922V35.6582H341.672V9.47638H345.695V31.9082H358.24V9.47638H362.263ZM376.164 29.7264L388.777 9.47638H393.414V35.6582H389.391V15.4082L376.845 35.6582H372.141V9.47638H376.164V29.7264ZM411.418 36.2037C409.054 36.2037 406.98 35.6412 405.196 34.5162C403.423 33.3912 402.037 31.8173 401.037 29.7946C400.048 27.7718 399.554 25.4082 399.554 22.7037C399.554 19.9764 400.048 17.5957 401.037 15.5616C402.037 13.5275 403.423 11.948 405.196 10.823C406.98 9.69798 409.054 9.13548 411.418 9.13548C413.781 9.13548 415.85 9.69798 417.622 10.823C419.406 11.948 420.793 13.5275 421.781 15.5616C422.781 17.5957 423.281 19.9764 423.281 22.7037C423.281 25.4082 422.781 27.7718 421.781 29.7946C420.793 31.8173 419.406 33.3912 417.622 34.5162C415.85 35.6412 413.781 36.2037 411.418 36.2037ZM411.418 32.59C413.213 32.59 414.691 32.1298 415.85 31.2093C417.009 30.2889 417.867 29.0787 418.423 27.5787C418.98 26.0787 419.259 24.4537 419.259 22.7037C419.259 20.9537 418.98 19.323 418.423 17.8116C417.867 16.3002 417.009 15.0787 415.85 14.1468C414.691 13.215 413.213 12.7491 411.418 12.7491C409.622 12.7491 408.145 13.215 406.986 14.1468C405.827 15.0787 404.969 16.3002 404.412 17.8116C403.855 19.323 403.577 20.9537 403.577 22.7037C403.577 24.4537 403.855 26.0787 404.412 27.5787C404.969 29.0787 405.827 30.2889 406.986 31.2093C408.145 32.1298 409.622 32.59 411.418 32.59ZM446.945 20.7264V24.4764H432.49V20.7264H446.945ZM433.445 9.47638V35.6582H429.422V9.47638H433.445ZM450.013 9.47638V35.6582H445.99V9.47638H450.013ZM474.882 20.7264V24.4764H460.428V20.7264H474.882ZM461.382 9.47638V35.6582H457.36V9.47638H461.382ZM477.95 9.47638V35.6582H473.928V9.47638H477.95ZM495.933 36.2037C493.57 36.2037 491.496 35.6412 489.712 34.5162C487.939 33.3912 486.553 31.8173 485.553 29.7946C484.564 27.7718 484.07 25.4082 484.07 22.7037C484.07 19.9764 484.564 17.5957 485.553 15.5616C486.553 13.5275 487.939 11.948 489.712 10.823C491.496 9.69798 493.57 9.13548 495.933 9.13548C498.297 9.13548 500.365 9.69798 502.138 10.823C503.922 11.948 505.308 13.5275 506.297 15.5616C507.297 17.5957 507.797 19.9764 507.797 22.7037C507.797 25.4082 507.297 27.7718 506.297 29.7946C505.308 31.8173 503.922 33.3912 502.138 34.5162C500.365 35.6412 498.297 36.2037 495.933 36.2037ZM495.933 32.59C497.729 32.59 499.206 32.1298 500.365 31.2093C501.524 30.2889 502.382 29.0787 502.939 27.5787C503.496 26.0787 503.774 24.4537 503.774 22.7037C503.774 20.9537 503.496 19.323 502.939 17.8116C502.382 16.3002 501.524 15.0787 500.365 14.1468C499.206 13.215 497.729 12.7491 495.933 12.7491C494.138 12.7491 492.661 13.215 491.502 14.1468C490.343 15.0787 489.485 16.3002 488.928 17.8116C488.371 19.323 488.093 20.9537 488.093 22.7037C488.093 24.4537 488.371 26.0787 488.928 27.5787C489.485 29.0787 490.343 30.2889 491.502 31.2093C492.661 32.1298 494.138 32.59 495.933 32.59ZM528.938 18.8173V22.5673H513.665V18.8173H528.938ZM536.016 45.4764V9.47638H539.902V13.6355H540.379C540.675 13.1809 541.084 12.6014 541.607 11.8968C542.141 11.1809 542.902 10.5446 543.891 9.98775C544.891 9.41957 546.243 9.13548 547.948 9.13548C550.152 9.13548 552.095 9.68661 553.777 10.7889C555.459 11.8912 556.771 13.4537 557.715 15.4764C558.658 17.4991 559.129 19.8855 559.129 22.6355C559.129 25.4082 558.658 27.8116 557.715 29.8457C556.771 31.8684 555.465 33.4366 553.794 34.5502C552.124 35.6525 550.198 36.2037 548.016 36.2037C546.334 36.2037 544.987 35.9252 543.976 35.3684C542.965 34.8002 542.186 34.1582 541.641 33.4423C541.095 32.715 540.675 32.1127 540.379 31.6355H540.039V45.4764H536.016ZM539.97 22.5673C539.97 24.5446 540.26 26.2889 540.84 27.8002C541.419 29.3002 542.266 30.4764 543.379 31.3287C544.493 32.1696 545.857 32.59 547.47 32.59C549.152 32.59 550.556 32.1468 551.681 31.2605C552.817 30.3627 553.669 29.1582 554.237 27.6468C554.817 26.1241 555.107 24.4309 555.107 22.5673C555.107 20.7264 554.823 19.0673 554.254 17.59C553.698 16.1014 552.851 14.9252 551.715 14.0616C550.59 13.1866 549.175 12.7491 547.47 12.7491C545.834 12.7491 544.459 13.1639 543.345 13.9934C542.232 14.8116 541.391 15.9593 540.823 17.4366C540.254 18.9025 539.97 20.6127 539.97 22.5673ZM576.243 36.2037C573.72 36.2037 571.544 35.6468 569.715 34.5332C567.896 33.4082 566.493 31.84 565.504 29.8287C564.527 27.8059 564.039 25.4537 564.039 22.7718C564.039 20.09 564.527 17.7264 565.504 15.6809C566.493 13.6241 567.868 12.0218 569.629 10.8741C571.402 9.71502 573.47 9.13548 575.834 9.13548C577.198 9.13548 578.544 9.36275 579.874 9.81729C581.203 10.2718 582.414 11.0105 583.504 12.0332C584.595 13.0446 585.465 14.3855 586.112 16.0559C586.76 17.7264 587.084 19.7832 587.084 22.2264V23.9309H566.902V20.4537H582.993C582.993 18.9764 582.698 17.6582 582.107 16.4991C581.527 15.34 580.698 14.4252 579.618 13.7548C578.55 13.0843 577.289 12.7491 575.834 12.7491C574.232 12.7491 572.845 13.1468 571.675 13.9423C570.516 14.7264 569.624 15.7491 568.999 17.0105C568.374 18.2718 568.061 19.6241 568.061 21.0673V23.3855C568.061 25.3627 568.402 27.0389 569.084 28.4139C569.777 29.7775 570.737 30.8173 571.965 31.5332C573.192 32.2377 574.618 32.59 576.243 32.59C577.3 32.59 578.254 32.4423 579.107 32.1468C579.97 31.84 580.715 31.3855 581.34 30.7832C581.965 30.1696 582.448 29.4082 582.789 28.4991L586.675 29.59C586.266 30.9082 585.578 32.0673 584.612 33.0673C583.646 34.0559 582.453 34.8287 581.033 35.3855C579.612 35.9309 578.016 36.2037 576.243 36.2037ZM603.84 36.2037C601.385 36.2037 599.271 35.6241 597.499 34.465C595.726 33.3059 594.362 31.7093 593.408 29.6752C592.453 27.6412 591.976 25.3173 591.976 22.7037C591.976 20.0446 592.465 17.698 593.442 15.6639C594.431 13.6184 595.806 12.0218 597.567 10.8741C599.34 9.71502 601.408 9.13548 603.771 9.13548C605.612 9.13548 607.271 9.47639 608.749 10.1582C610.226 10.84 611.436 11.7946 612.379 13.0218C613.323 14.2491 613.908 15.6809 614.135 17.3173H610.112C609.806 16.1241 609.124 15.0673 608.067 14.1468C607.021 13.215 605.612 12.7491 603.84 12.7491C602.271 12.7491 600.896 13.1582 599.715 13.9764C598.544 14.7832 597.629 15.9252 596.97 17.4025C596.323 18.8684 595.999 20.59 595.999 22.5673C595.999 24.59 596.317 26.3514 596.953 27.8514C597.601 29.3514 598.51 30.5162 599.681 31.3457C600.862 32.1752 602.249 32.59 603.84 32.59C604.885 32.59 605.834 32.4082 606.686 32.0446C607.539 31.6809 608.26 31.1582 608.851 30.4764C609.442 29.7946 609.862 28.9764 610.112 28.0218H614.135C613.908 29.5673 613.345 30.9593 612.448 32.198C611.561 33.4252 610.385 34.4025 608.919 35.1298C607.465 35.8457 605.771 36.2037 603.84 36.2037ZM622.607 45.4764C621.925 45.4764 621.317 45.4196 620.783 45.3059C620.249 45.2037 619.879 45.1014 619.675 44.9991L620.698 41.4537C621.675 41.7037 622.539 41.7946 623.289 41.7264C624.039 41.6582 624.703 41.323 625.283 40.7207C625.874 40.1298 626.414 39.1696 626.902 37.84L627.652 35.7946L617.97 9.47638H622.334L629.561 30.34H629.834L637.061 9.47638H641.425L630.311 39.4764C629.811 40.8287 629.192 41.948 628.453 42.8343C627.715 43.7321 626.857 44.3968 625.879 44.8287C624.914 45.2605 623.823 45.4764 622.607 45.4764ZM646.735 45.4764V9.47638H650.621V13.6355H651.098C651.394 13.1809 651.803 12.6014 652.325 11.8968C652.86 11.1809 653.621 10.5446 654.61 9.98775C655.61 9.41957 656.962 9.13548 658.666 9.13548C660.871 9.13548 662.814 9.68661 664.496 10.7889C666.178 11.8912 667.49 13.4537 668.433 15.4764C669.377 17.4991 669.848 19.8855 669.848 22.6355C669.848 25.4082 669.377 27.8116 668.433 29.8457C667.49 31.8684 666.183 33.4366 664.513 34.5502C662.843 35.6525 660.916 36.2037 658.735 36.2037C657.053 36.2037 655.706 35.9252 654.695 35.3684C653.683 34.8002 652.905 34.1582 652.36 33.4423C651.814 32.715 651.394 32.1127 651.098 31.6355H650.757V45.4764H646.735ZM650.689 22.5673C650.689 24.5446 650.979 26.2889 651.558 27.8002C652.138 29.3002 652.985 30.4764 654.098 31.3287C655.212 32.1696 656.575 32.59 658.189 32.59C659.871 32.59 661.274 32.1468 662.399 31.2605C663.536 30.3627 664.388 29.1582 664.956 27.6468C665.536 26.1241 665.825 24.4309 665.825 22.5673C665.825 20.7264 665.541 19.0673 664.973 17.59C664.416 16.1014 663.57 14.9252 662.433 14.0616C661.308 13.1866 659.894 12.7491 658.189 12.7491C656.553 12.7491 655.178 13.1639 654.064 13.9934C652.95 14.8116 652.11 15.9593 651.541 17.4366C650.973 18.9025 650.689 20.6127 650.689 22.5673ZM686.621 36.2037C684.166 36.2037 682.053 35.6241 680.28 34.465C678.507 33.3059 677.144 31.7093 676.189 29.6752C675.235 27.6412 674.757 25.3173 674.757 22.7037C674.757 20.0446 675.246 17.698 676.223 15.6639C677.212 13.6184 678.587 12.0218 680.348 10.8741C682.121 9.71502 684.189 9.13548 686.553 9.13548C688.394 9.13548 690.053 9.47639 691.53 10.1582C693.007 10.84 694.218 11.7946 695.161 13.0218C696.104 14.2491 696.689 15.6809 696.916 17.3173H692.894C692.587 16.1241 691.905 15.0673 690.848 14.1468C689.803 13.215 688.394 12.7491 686.621 12.7491C685.053 12.7491 683.678 13.1582 682.496 13.9764C681.325 14.7832 680.411 15.9252 679.752 17.4025C679.104 18.8684 678.78 20.59 678.78 22.5673C678.78 24.59 679.098 26.3514 679.735 27.8514C680.382 29.3514 681.291 30.5162 682.462 31.3457C683.644 32.1752 685.03 32.59 686.621 32.59C687.666 32.59 688.615 32.4082 689.468 32.0446C690.32 31.6809 691.041 31.1582 691.632 30.4764C692.223 29.7946 692.644 28.9764 692.894 28.0218H696.916C696.689 29.5673 696.127 30.9593 695.229 32.198C694.343 33.4252 693.166 34.4025 691.7 35.1298C690.246 35.8457 688.553 36.2037 686.621 36.2037ZM720.32 20.7264V24.4764H705.865V20.7264H720.32ZM706.82 9.47638V35.6582H702.797V9.47638H706.82ZM723.388 9.47638V35.6582H719.365V9.47638H723.388ZM734.212 18.9537H741.712C744.78 18.9537 747.127 19.7321 748.752 21.2889C750.377 22.8457 751.189 24.8173 751.189 27.2037C751.189 28.7718 750.825 30.198 750.098 31.4821C749.371 32.7548 748.303 33.7718 746.894 34.5332C745.485 35.2832 743.757 35.6582 741.712 35.6582H730.735V9.47638H734.757V31.9082H741.712C743.303 31.9082 744.61 31.4877 745.632 30.6468C746.655 29.8059 747.166 28.7264 747.166 27.4082C747.166 26.0218 746.655 24.8912 745.632 24.0162C744.61 23.1412 743.303 22.7037 741.712 22.7037H734.212V18.9537ZM755.348 35.6582V9.47638H759.371V35.6582H755.348ZM770.757 29.7264L783.371 9.47638H788.007V35.6582H783.985V15.4082L771.439 35.6582H766.735V9.47638H770.757V29.7264ZM780.712 0.749111H784.462C784.462 2.59002 783.825 4.0957 782.553 5.26616C781.28 6.43661 779.553 7.02184 777.371 7.02184C775.223 7.02184 773.513 6.43661 772.24 5.26616C770.979 4.0957 770.348 2.59002 770.348 0.749111H774.098C774.098 1.63548 774.343 2.41388 774.831 3.08434C775.331 3.75479 776.178 4.09002 777.371 4.09002C778.564 4.09002 779.416 3.75479 779.928 3.08434C780.45 2.41388 780.712 1.63548 780.712 0.749111ZM20.5911 67.4764V89.9082H24.2729V102.113H20.2502V93.6582H0.000177622V67.4764H4.02291V89.9082H16.5684V67.4764H20.5911ZM41.165 94.2037C38.6422 94.2037 36.4661 93.6468 34.6365 92.5332C32.8184 91.4082 31.415 89.84 30.4263 87.8287C29.449 85.8059 28.9604 83.4537 28.9604 80.7718C28.9604 78.09 29.449 75.7264 30.4263 73.6809C31.415 71.6241 32.79 70.0218 34.5513 68.8741C36.324 67.715 38.3922 67.1355 40.7559 67.1355C42.1195 67.1355 43.4661 67.3627 44.7956 67.8173C46.1252 68.2718 47.3354 69.0105 48.4263 70.0332C49.5172 71.0446 50.3865 72.3855 51.0343 74.0559C51.682 75.7264 52.0059 77.7832 52.0059 80.2264V81.9309H31.824V78.4537H47.915C47.915 76.9764 47.6195 75.6582 47.0286 74.4991C46.449 73.34 45.6195 72.4252 44.54 71.7548C43.4718 71.0843 42.2104 70.7491 40.7559 70.7491C39.1536 70.7491 37.7672 71.1468 36.5968 71.9423C35.4377 72.7264 34.5456 73.7491 33.9206 75.0105C33.2956 76.2718 32.9831 77.6241 32.9831 79.0673V81.3855C32.9831 83.3627 33.324 85.0389 34.0059 86.4139C34.699 87.7775 35.6593 88.8173 36.8865 89.5332C38.1138 90.2377 39.54 90.59 41.165 90.59C42.2218 90.59 43.1763 90.4423 44.0286 90.1468C44.8922 89.84 45.6365 89.3855 46.2615 88.7832C46.8865 88.1696 47.3695 87.4082 47.7104 86.4991L51.5968 87.59C51.1877 88.9082 50.5002 90.0673 49.5343 91.0673C48.5684 92.0559 47.3752 92.8287 45.9547 93.3855C44.5343 93.9309 42.9377 94.2037 41.165 94.2037ZM75.6479 78.7264V82.4764H61.1934V78.7264H75.6479ZM62.1479 67.4764V93.6582H58.1252V67.4764H62.1479ZM78.7161 67.4764V93.6582H74.6934V67.4764H78.7161ZM82.5002 71.2264V67.4764H103.773V71.2264H95.182V93.6582H91.1593V71.2264H82.5002ZM109.641 103.476V67.4764H113.527V71.6355H114.004C114.3 71.1809 114.709 70.6014 115.232 69.8968C115.766 69.1809 116.527 68.5446 117.516 67.9877C118.516 67.4196 119.868 67.1355 121.573 67.1355C123.777 67.1355 125.72 67.6866 127.402 68.7889C129.084 69.8912 130.396 71.4537 131.34 73.4764C132.283 75.4991 132.754 77.8855 132.754 80.6355C132.754 83.4082 132.283 85.8116 131.34 87.8457C130.396 89.8684 129.09 91.4366 127.419 92.5502C125.749 93.6525 123.823 94.2037 121.641 94.2037C119.959 94.2037 118.612 93.9252 117.601 93.3684C116.59 92.8002 115.811 92.1582 115.266 91.4423C114.72 90.715 114.3 90.1127 114.004 89.6355H113.664V103.476H109.641ZM113.595 80.5673C113.595 82.5446 113.885 84.2889 114.465 85.8002C115.044 87.3002 115.891 88.4764 117.004 89.3287C118.118 90.1696 119.482 90.59 121.095 90.59C122.777 90.59 124.181 90.1468 125.306 89.2605C126.442 88.3627 127.294 87.1582 127.862 85.6468C128.442 84.1241 128.732 82.4309 128.732 80.5673C128.732 78.7264 128.448 77.0673 127.879 75.59C127.323 74.1014 126.476 72.9252 125.34 72.0616C124.215 71.1866 122.8 70.7491 121.095 70.7491C119.459 70.7491 118.084 71.1639 116.97 71.9934C115.857 72.8116 115.016 73.9593 114.448 75.4366C113.879 76.9025 113.595 78.6127 113.595 80.5673ZM163.027 102.59V58.7491H167.05V102.59H163.027ZM163.027 94.2037C161.254 94.2037 159.641 93.8855 158.186 93.2491C156.732 92.6014 155.482 91.6866 154.436 90.5048C153.391 89.3116 152.584 87.8855 152.016 86.2264C151.448 84.5673 151.164 82.7264 151.164 80.7037C151.164 78.6582 151.448 76.8059 152.016 75.1468C152.584 73.4764 153.391 72.0446 154.436 70.8514C155.482 69.6582 156.732 68.7434 158.186 68.1071C159.641 67.4593 161.254 67.1355 163.027 67.1355H164.254V94.2037H163.027ZM163.027 90.59H163.709V70.7491H163.027C161.686 70.7491 160.521 71.0218 159.533 71.5673C158.544 72.1014 157.726 72.8343 157.078 73.7662C156.442 74.6866 155.965 75.7434 155.646 76.9366C155.34 78.1298 155.186 79.3855 155.186 80.7037C155.186 82.4537 155.465 84.0787 156.021 85.5787C156.578 87.0787 157.436 88.2889 158.595 89.2093C159.754 90.1298 161.232 90.59 163.027 90.59ZM167.05 94.2037H165.823V67.1355H167.05C168.823 67.1355 170.436 67.4593 171.891 68.1071C173.345 68.7434 174.595 69.6582 175.641 70.8514C176.686 72.0446 177.493 73.4764 178.061 75.1468C178.629 76.8059 178.914 78.6582 178.914 80.7037C178.914 82.7264 178.629 84.5673 178.061 86.2264C177.493 87.8855 176.686 89.3116 175.641 90.5048C174.595 91.6866 173.345 92.6014 171.891 93.2491C170.436 93.8855 168.823 94.2037 167.05 94.2037ZM167.05 90.59C168.402 90.59 169.567 90.3287 170.544 89.8059C171.533 89.2718 172.345 88.5446 172.982 87.6241C173.629 86.6923 174.107 85.6355 174.414 84.4537C174.732 83.2605 174.891 82.0105 174.891 80.7037C174.891 78.9537 174.612 77.323 174.056 75.8116C173.499 74.3002 172.641 73.0787 171.482 72.1468C170.323 71.215 168.845 70.7491 167.05 70.7491H166.368V90.59H167.05ZM195.699 94.2037C193.335 94.2037 191.262 93.6412 189.477 92.5162C187.705 91.3912 186.318 89.8173 185.318 87.7946C184.33 85.7718 183.835 83.4082 183.835 80.7037C183.835 77.9764 184.33 75.5957 185.318 73.5616C186.318 71.5275 187.705 69.948 189.477 68.823C191.262 67.698 193.335 67.1355 195.699 67.1355C198.063 67.1355 200.131 67.698 201.904 68.823C203.688 69.948 205.074 71.5275 206.063 73.5616C207.063 75.5957 207.563 77.9764 207.563 80.7037C207.563 83.4082 207.063 85.7718 206.063 87.7946C205.074 89.8173 203.688 91.3912 201.904 92.5162C200.131 93.6412 198.063 94.2037 195.699 94.2037ZM195.699 90.59C197.494 90.59 198.972 90.1298 200.131 89.2093C201.29 88.2889 202.148 87.0787 202.705 85.5787C203.262 84.0787 203.54 82.4537 203.54 80.7037C203.54 78.9537 203.262 77.323 202.705 75.8116C202.148 74.3002 201.29 73.0787 200.131 72.1468C198.972 71.215 197.494 70.7491 195.699 70.7491C193.904 70.7491 192.426 71.215 191.267 72.1468C190.108 73.0787 189.25 74.3002 188.693 75.8116C188.137 77.323 187.858 78.9537 187.858 80.7037C187.858 82.4537 188.137 84.0787 188.693 85.5787C189.25 87.0787 190.108 88.2889 191.267 89.2093C192.426 90.1298 193.904 90.59 195.699 90.59ZM231.226 78.7264V82.4764H216.771V78.7264H231.226ZM217.726 67.4764V93.6582H213.703V67.4764H217.726ZM234.294 67.4764V93.6582H230.271V67.4764H234.294ZM238.845 101.158V89.9082H241.027C241.561 89.3514 242.021 88.7491 242.408 88.1014C242.794 87.4537 243.129 86.6866 243.414 85.8002C243.709 84.9025 243.959 83.8116 244.164 82.5275C244.368 81.2321 244.55 79.6696 244.709 77.84L245.595 67.4764H262.232V89.9082H266.254V101.158H262.232V93.6582H242.868V101.158H238.845ZM245.595 89.9082H258.209V71.2264H249.345L248.664 77.84C248.379 80.5787 248.027 82.9707 247.607 85.0162C247.186 87.0616 246.516 88.6923 245.595 89.9082ZM282.23 94.2037C279.867 94.2037 277.793 93.6412 276.009 92.5162C274.236 91.3912 272.85 89.8173 271.85 87.7946C270.861 85.7718 270.367 83.4082 270.367 80.7037C270.367 77.9764 270.861 75.5957 271.85 73.5616C272.85 71.5275 274.236 69.948 276.009 68.823C277.793 67.698 279.867 67.1355 282.23 67.1355C284.594 67.1355 286.662 67.698 288.435 68.823C290.219 69.948 291.605 71.5275 292.594 73.5616C293.594 75.5957 294.094 77.9764 294.094 80.7037C294.094 83.4082 293.594 85.7718 292.594 87.7946C291.605 89.8173 290.219 91.3912 288.435 92.5162C286.662 93.6412 284.594 94.2037 282.23 94.2037ZM282.23 90.59C284.026 90.59 285.503 90.1298 286.662 89.2093C287.821 88.2889 288.679 87.0787 289.236 85.5787C289.793 84.0787 290.071 82.4537 290.071 80.7037C290.071 78.9537 289.793 77.323 289.236 75.8116C288.679 74.3002 287.821 73.0787 286.662 72.1468C285.503 71.215 284.026 70.7491 282.23 70.7491C280.435 70.7491 278.958 71.215 277.798 72.1468C276.639 73.0787 275.781 74.3002 275.225 75.8116C274.668 77.323 274.389 78.9537 274.389 80.7037C274.389 82.4537 274.668 84.0787 275.225 85.5787C275.781 87.0787 276.639 88.2889 277.798 89.2093C278.958 90.1298 280.435 90.59 282.23 90.59ZM300.235 93.6582V67.4764H310.939C313.757 67.4764 315.996 68.1127 317.655 69.3855C319.314 70.6582 320.144 72.34 320.144 74.4309C320.144 76.0218 319.672 77.2548 318.729 78.1298C317.786 78.9934 316.575 79.5787 315.098 79.8855C316.064 80.0218 317.002 80.3627 317.911 80.9082C318.831 81.4537 319.593 82.2037 320.195 83.1582C320.797 84.1014 321.098 85.2605 321.098 86.6355C321.098 87.9764 320.757 89.1752 320.075 90.2321C319.394 91.2889 318.416 92.1241 317.144 92.7377C315.871 93.3514 314.348 93.6582 312.575 93.6582H300.235ZM304.053 89.9764H312.575C313.962 89.9764 315.047 89.6468 315.831 88.9877C316.615 88.3287 317.007 87.4309 317.007 86.2946C317.007 84.9423 316.615 83.8798 315.831 83.1071C315.047 82.323 313.962 81.9309 312.575 81.9309H304.053V89.9764ZM304.053 78.4537H310.939C312.019 78.4537 312.945 78.3059 313.718 78.0105C314.49 77.7037 315.081 77.2718 315.49 76.715C315.911 76.1468 316.121 75.4764 316.121 74.7037C316.121 73.6014 315.661 72.7377 314.74 72.1127C313.82 71.4764 312.553 71.1582 310.939 71.1582H304.053V78.4537ZM337.824 94.2037C335.46 94.2037 333.387 93.6412 331.602 92.5162C329.83 91.3912 328.443 89.8173 327.443 87.7946C326.455 85.7718 325.96 83.4082 325.96 80.7037C325.96 77.9764 326.455 75.5957 327.443 73.5616C328.443 71.5275 329.83 69.948 331.602 68.823C333.387 67.698 335.46 67.1355 337.824 67.1355C340.188 67.1355 342.256 67.698 344.029 68.823C345.813 69.948 347.199 71.5275 348.188 73.5616C349.188 75.5957 349.688 77.9764 349.688 80.7037C349.688 83.4082 349.188 85.7718 348.188 87.7946C347.199 89.8173 345.813 91.3912 344.029 92.5162C342.256 93.6412 340.188 94.2037 337.824 94.2037ZM337.824 90.59C339.619 90.59 341.097 90.1298 342.256 89.2093C343.415 88.2889 344.273 87.0787 344.83 85.5787C345.387 84.0787 345.665 82.4537 345.665 80.7037C345.665 78.9537 345.387 77.323 344.83 75.8116C344.273 74.3002 343.415 73.0787 342.256 72.1468C341.097 71.215 339.619 70.7491 337.824 70.7491C336.029 70.7491 334.551 71.215 333.392 72.1468C332.233 73.0787 331.375 74.3002 330.818 75.8116C330.262 77.323 329.983 78.9537 329.983 80.7037C329.983 82.4537 330.262 84.0787 330.818 85.5787C331.375 87.0787 332.233 88.2889 333.392 89.2093C334.551 90.1298 336.029 90.59 337.824 90.59ZM371.987 67.4764V71.2264H359.851V93.6582H355.828V67.4764H371.987ZM387.137 94.2037C384.773 94.2037 382.699 93.6412 380.915 92.5162C379.142 91.3912 377.756 89.8173 376.756 87.7946C375.767 85.7718 375.273 83.4082 375.273 80.7037C375.273 77.9764 375.767 75.5957 376.756 73.5616C377.756 71.5275 379.142 69.948 380.915 68.823C382.699 67.698 384.773 67.1355 387.137 67.1355C389.5 67.1355 391.568 67.698 393.341 68.823C395.125 69.948 396.512 71.5275 397.5 73.5616C398.5 75.5957 399 77.9764 399 80.7037C399 83.4082 398.5 85.7718 397.5 87.7946C396.512 89.8173 395.125 91.3912 393.341 92.5162C391.568 93.6412 389.5 94.2037 387.137 94.2037ZM387.137 90.59C388.932 90.59 390.409 90.1298 391.568 89.2093C392.727 88.2889 393.585 87.0787 394.142 85.5787C394.699 84.0787 394.977 82.4537 394.977 80.7037C394.977 78.9537 394.699 77.323 394.142 75.8116C393.585 74.3002 392.727 73.0787 391.568 72.1468C390.409 71.215 388.932 70.7491 387.137 70.7491C385.341 70.7491 383.864 71.215 382.705 72.1468C381.546 73.0787 380.688 74.3002 380.131 75.8116C379.574 77.323 379.296 78.9537 379.296 80.7037C379.296 82.4537 379.574 84.0787 380.131 85.5787C380.688 87.0787 381.546 88.2889 382.705 89.2093C383.864 90.1298 385.341 90.59 387.137 90.59ZM418.641 103.476V67.4764H422.527V71.6355H423.004C423.3 71.1809 423.709 70.6014 424.232 69.8968C424.766 69.1809 425.527 68.5446 426.516 67.9877C427.516 67.4196 428.868 67.1355 430.573 67.1355C432.777 67.1355 434.72 67.6866 436.402 68.7889C438.084 69.8912 439.396 71.4537 440.34 73.4764C441.283 75.4991 441.754 77.8855 441.754 80.6355C441.754 83.4082 441.283 85.8116 440.34 87.8457C439.396 89.8684 438.09 91.4366 436.419 92.5502C434.749 93.6525 432.823 94.2037 430.641 94.2037C428.959 94.2037 427.612 93.9252 426.601 93.3684C425.59 92.8002 424.811 92.1582 424.266 91.4423C423.72 90.715 423.3 90.1127 423.004 89.6355H422.664V103.476H418.641ZM422.595 80.5673C422.595 82.5446 422.885 84.2889 423.465 85.8002C424.044 87.3002 424.891 88.4764 426.004 89.3287C427.118 90.1696 428.482 90.59 430.095 90.59C431.777 90.59 433.181 90.1468 434.306 89.2605C435.442 88.3627 436.294 87.1582 436.862 85.6468C437.442 84.1241 437.732 82.4309 437.732 80.5673C437.732 78.7264 437.448 77.0673 436.879 75.59C436.323 74.1014 435.476 72.9252 434.34 72.0616C433.215 71.1866 431.8 70.7491 430.095 70.7491C428.459 70.7491 427.084 71.1639 425.97 71.9934C424.857 72.8116 424.016 73.9593 423.448 75.4366C422.879 76.9025 422.595 78.6127 422.595 80.5673ZM451.368 76.9537H458.868C461.936 76.9537 464.283 77.7321 465.908 79.2889C467.533 80.8457 468.345 82.8173 468.345 85.2037C468.345 86.7718 467.982 88.198 467.254 89.4821C466.527 90.7548 465.459 91.7718 464.05 92.5332C462.641 93.2832 460.914 93.6582 458.868 93.6582H447.891V67.4764H451.914V89.9082H458.868C460.459 89.9082 461.766 89.4877 462.789 88.6468C463.811 87.8059 464.323 86.7264 464.323 85.4082C464.323 84.0218 463.811 82.8912 462.789 82.0162C461.766 81.1412 460.459 80.7037 458.868 80.7037H451.368V76.9537ZM472.504 93.6582V67.4764H476.527V93.6582H472.504ZM501.414 78.7264V82.4764H486.959V78.7264H501.414ZM487.914 67.4764V93.6582H483.891V67.4764H487.914ZM504.482 67.4764V93.6582H500.459V67.4764H504.482ZM511.828 93.6582V67.4764H515.851V78.8627H518.51L527.919 67.4764H533.101L522.533 80.09L533.237 93.6582H528.056L519.465 82.6127H515.851V93.6582H511.828ZM545.314 94.2718C543.655 94.2718 542.149 93.9593 540.797 93.3343C539.445 92.698 538.371 91.7832 537.575 90.59C536.78 89.3855 536.382 87.9309 536.382 86.2264C536.382 84.7264 536.678 83.5105 537.269 82.5787C537.86 81.6355 538.649 80.8968 539.638 80.3627C540.627 79.8287 541.718 79.4309 542.911 79.1696C544.115 78.8968 545.325 78.6809 546.541 78.5218C548.132 78.3173 549.422 78.1639 550.411 78.0616C551.411 77.948 552.138 77.7605 552.593 77.4991C553.058 77.2377 553.291 76.7832 553.291 76.1355V75.9991C553.291 74.3173 552.831 73.0105 551.911 72.0787C551.002 71.1468 549.621 70.6809 547.769 70.6809C545.848 70.6809 544.343 71.1014 543.252 71.9423C542.161 72.7832 541.394 73.6809 540.95 74.6355L537.132 73.2718C537.814 71.6809 538.723 70.4423 539.86 69.5559C541.007 68.6582 542.257 68.0332 543.61 67.6809C544.973 67.3173 546.314 67.1355 547.632 67.1355C548.473 67.1355 549.439 67.2377 550.53 67.4423C551.632 67.6355 552.695 68.0389 553.718 68.6525C554.752 69.2662 555.61 70.1923 556.291 71.4309C556.973 72.6696 557.314 74.3287 557.314 76.4082V93.6582H553.291V90.1127H553.087C552.814 90.6809 552.36 91.2889 551.723 91.9366C551.087 92.5843 550.24 93.1355 549.183 93.59C548.127 94.0446 546.837 94.2718 545.314 94.2718ZM545.928 90.6582C547.519 90.6582 548.86 90.3457 549.95 89.7207C551.053 89.0957 551.882 88.2889 552.439 87.3002C553.007 86.3116 553.291 85.2718 553.291 84.1809V80.4991C553.121 80.7037 552.746 80.8912 552.166 81.0616C551.598 81.2207 550.939 81.3627 550.189 81.4877C549.45 81.6014 548.729 81.7037 548.024 81.7946C547.331 81.8741 546.769 81.9423 546.337 81.9991C545.291 82.1355 544.314 82.3571 543.405 82.6639C542.507 82.9593 541.78 83.4082 541.223 84.0105C540.678 84.6014 540.405 85.4082 540.405 86.4309C540.405 87.8287 540.922 88.8855 541.956 89.6014C543.002 90.3059 544.325 90.6582 545.928 90.6582ZM568.202 58.7491V61.8173C568.202 62.7491 568.031 63.7434 567.691 64.8002C567.361 65.8457 566.872 66.8627 566.225 67.8514C565.588 68.8287 564.816 69.6809 563.906 70.4082L561.725 68.6355C562.441 67.6127 563.06 66.5502 563.583 65.448C564.117 64.3343 564.384 63.1468 564.384 61.8855V58.7491H568.202ZM576.929 58.7491V61.8173C576.929 62.7491 576.759 63.7434 576.418 64.8002C576.088 65.8457 575.6 66.8627 574.952 67.8514C574.316 68.8287 573.543 69.6809 572.634 70.4082L570.452 68.6355C571.168 67.6127 571.787 66.5502 572.31 65.448C572.844 64.3343 573.111 63.1468 573.111 61.8855V58.7491H576.929Z" fill="#226B7E"/>
</svg>
