<svg width="16" height="16" viewBox="0 0 16 16" fill="none" xmlns="http://www.w3.org/2000/svg">
<g clip-path="url(#clip0_3089_4427)">
<path d="M14.5 4.00002H2.38C2.23524 4.02803 2.08608 4.02369 1.9432 3.9873C1.80031 3.95091 1.66724 3.88337 1.55352 3.78953C1.4398 3.69568 1.34823 3.57785 1.28539 3.44447C1.22254 3.31109 1.18997 3.16546 1.19 3.01802V2.99902L14 2.50002V1.31002C14.0209 1.13247 14.0011 0.952493 13.9423 0.783687C13.8834 0.61488 13.787 0.461654 13.6602 0.33558C13.5335 0.209505 13.3797 0.113878 13.2106 0.0559202C13.0415 -0.00203779 12.8614 -0.0208116 12.684 0.00101655L1.31 1.85002C0.92581 1.99123 0.594199 2.24693 0.359937 2.58259C0.125675 2.91824 4.20319e-05 3.31769 0 3.72702L0 14.499C0 14.8968 0.158035 15.2784 0.43934 15.5597C0.720644 15.841 1.10218 15.999 1.5 15.999H14.5C14.8978 15.999 15.2794 15.841 15.5607 15.5597C15.842 15.2784 16 14.8968 16 14.499V5.48902L16.001 5.44802C16.001 5.06345 15.8482 4.69464 15.5763 4.42271C15.3044 4.15078 14.9356 3.99802 14.551 3.99802L14.498 3.99902L14.5 4.00002ZM13 11C12.602 10.9999 12.2204 10.8417 11.9391 10.5602C11.6578 10.2787 11.4999 9.89697 11.5 9.49902C11.5001 9.10106 11.6583 8.71945 11.9398 8.43815C12.2213 8.15684 12.603 7.99888 13.001 7.99902C13.198 7.99908 13.3932 8.03796 13.5752 8.11343C13.7572 8.18889 13.9226 8.29948 14.0619 8.43886C14.2012 8.57824 14.3116 8.74369 14.387 8.92576C14.4623 9.10784 14.5011 9.30297 14.501 9.50002C14.5009 9.69706 14.4621 9.89217 14.3866 10.0742C14.3111 10.2562 14.2005 10.4216 14.0612 10.5609C13.9218 10.7002 13.7563 10.8106 13.5743 10.886C13.3922 10.9613 13.197 11.0001 13 11Z" fill="#11C15B"/>
</g>
<defs>
<clipPath id="clip0_3089_4427">
<rect width="16" height="16" fill="white"/>
</clipPath>
</defs>
</svg>
